<mxfile host="Electron" agent="Mozilla/5.0 (X11; Linux x86_64) AppleWebKit/537.36 (KHTML, like Gecko) draw.io/24.7.5 Chrome/126.0.6478.183 Electron/31.3.0 Safari/537.36" version="24.7.5">
  <diagram id="C5RBs43oDa-KdzZeNtuy" name="Page-1">
    <mxGraphModel dx="862" dy="2680" grid="1" gridSize="10" guides="1" tooltips="1" connect="1" arrows="1" fold="1" page="1" pageScale="1" pageWidth="827" pageHeight="1169" background="#333333" math="0" shadow="0">
      <root>
        <mxCell id="WIyWlLk6GJQsqaUBKTNV-0" />
        <mxCell id="WIyWlLk6GJQsqaUBKTNV-1" parent="WIyWlLk6GJQsqaUBKTNV-0" />
        <mxCell id="uH4OkT64cM5H5gFiCBfV-25" style="edgeStyle=orthogonalEdgeStyle;rounded=0;orthogonalLoop=1;jettySize=auto;html=1;entryX=0.5;entryY=0;entryDx=0;entryDy=0;strokeColor=#FFFFFF;align=center;verticalAlign=middle;fontFamily=Helvetica;fontSize=11;fontColor=default;labelBackgroundColor=default;endArrow=classic;" parent="WIyWlLk6GJQsqaUBKTNV-1" source="tedfQHLUCKz6kTAHSQzP-0" target="Ra94u74_zHsjVBOQ7fiC-0" edge="1">
          <mxGeometry relative="1" as="geometry" />
        </mxCell>
        <mxCell id="tedfQHLUCKz6kTAHSQzP-0" value="Check Function Parameters" style="rounded=1;whiteSpace=wrap;html=1;fontSize=13;glass=0;strokeWidth=1;shadow=0;fillColor=#DBCEAA;strokeColor=#d6b656;fontFamily=Times New Roman;fontColor=#000000;flipV=0;flipH=1;" parent="WIyWlLk6GJQsqaUBKTNV-1" vertex="1">
          <mxGeometry x="280" y="40" width="120" height="40" as="geometry" />
        </mxCell>
        <mxCell id="JQYIA-HylmGEcJKbKAeS-39" value="" style="edgeStyle=orthogonalEdgeStyle;rounded=0;orthogonalLoop=1;jettySize=auto;html=1;strokeColor=#FFFFFF;align=center;verticalAlign=middle;fontFamily=Helvetica;fontSize=11;fontColor=default;labelBackgroundColor=default;endArrow=classic;" parent="WIyWlLk6GJQsqaUBKTNV-1" source="tedfQHLUCKz6kTAHSQzP-3" target="tedfQHLUCKz6kTAHSQzP-0" edge="1">
          <mxGeometry relative="1" as="geometry" />
        </mxCell>
        <mxCell id="tedfQHLUCKz6kTAHSQzP-3" value="Start" style="text;html=1;strokeColor=none;fillColor=none;align=center;verticalAlign=middle;whiteSpace=wrap;rounded=0;fontFamily=Times New Roman;fontSize=13;fontColor=#FFFFFF;" parent="WIyWlLk6GJQsqaUBKTNV-1" vertex="1">
          <mxGeometry x="320" y="-30" width="40" height="20" as="geometry" />
        </mxCell>
        <mxCell id="uH4OkT64cM5H5gFiCBfV-26" style="edgeStyle=orthogonalEdgeStyle;rounded=0;orthogonalLoop=1;jettySize=auto;html=1;entryX=0.5;entryY=0;entryDx=0;entryDy=0;strokeColor=#FFFFFF;align=center;verticalAlign=middle;fontFamily=Helvetica;fontSize=11;fontColor=default;labelBackgroundColor=default;endArrow=classic;" parent="WIyWlLk6GJQsqaUBKTNV-1" source="Ra94u74_zHsjVBOQ7fiC-0" target="uH4OkT64cM5H5gFiCBfV-0" edge="1">
          <mxGeometry relative="1" as="geometry" />
        </mxCell>
        <mxCell id="Ra94u74_zHsjVBOQ7fiC-0" value="Create Ordered Lens List" style="rounded=1;whiteSpace=wrap;html=1;fontSize=13;glass=0;strokeWidth=1;shadow=0;fillColor=#DBCEAA;strokeColor=#d6b656;fontFamily=Times New Roman;fontColor=#000000;flipV=0;flipH=1;" parent="WIyWlLk6GJQsqaUBKTNV-1" vertex="1">
          <mxGeometry x="280" y="120" width="120" height="40" as="geometry" />
        </mxCell>
        <mxCell id="JQYIA-HylmGEcJKbKAeS-13" style="edgeStyle=orthogonalEdgeStyle;rounded=0;orthogonalLoop=1;jettySize=auto;html=1;entryX=0.5;entryY=0;entryDx=0;entryDy=0;strokeColor=#FFFFFF;align=center;verticalAlign=middle;fontFamily=Helvetica;fontSize=11;fontColor=default;labelBackgroundColor=default;endArrow=classic;" parent="WIyWlLk6GJQsqaUBKTNV-1" source="uH4OkT64cM5H5gFiCBfV-0" target="JQYIA-HylmGEcJKbKAeS-0" edge="1">
          <mxGeometry relative="1" as="geometry" />
        </mxCell>
        <mxCell id="uH4OkT64cM5H5gFiCBfV-0" value="Calculate Search Range" style="rounded=1;whiteSpace=wrap;html=1;fontSize=13;glass=0;strokeWidth=1;shadow=0;fillColor=#DBCEAA;strokeColor=#d6b656;fontFamily=Times New Roman;fontColor=#000000;flipV=0;flipH=1;" parent="WIyWlLk6GJQsqaUBKTNV-1" vertex="1">
          <mxGeometry x="280" y="200" width="120" height="40" as="geometry" />
        </mxCell>
        <mxCell id="JQYIA-HylmGEcJKbKAeS-21" style="edgeStyle=orthogonalEdgeStyle;rounded=0;orthogonalLoop=1;jettySize=auto;html=1;entryX=0.5;entryY=0;entryDx=0;entryDy=0;strokeColor=#FFFFFF;align=center;verticalAlign=middle;fontFamily=Helvetica;fontSize=11;fontColor=default;labelBackgroundColor=default;endArrow=classic;" parent="WIyWlLk6GJQsqaUBKTNV-1" source="uH4OkT64cM5H5gFiCBfV-1" target="JQYIA-HylmGEcJKbKAeS-5" edge="1">
          <mxGeometry relative="1" as="geometry" />
        </mxCell>
        <mxCell id="uH4OkT64cM5H5gFiCBfV-1" value="In Multiple Threads Do" style="shape=trapezoid;perimeter=trapezoidPerimeter;whiteSpace=wrap;html=1;fixedSize=1;fontFamily=Times New Roman;fillColor=#90c0c2;strokeColor=#0e8088;fontSize=13;" parent="WIyWlLk6GJQsqaUBKTNV-1" vertex="1">
          <mxGeometry x="410" y="599" width="220" height="40" as="geometry" />
        </mxCell>
        <mxCell id="JQYIA-HylmGEcJKbKAeS-25" style="edgeStyle=orthogonalEdgeStyle;rounded=0;orthogonalLoop=1;jettySize=auto;html=1;entryX=0.5;entryY=0;entryDx=0;entryDy=0;strokeColor=#FFFFFF;align=center;verticalAlign=middle;fontFamily=Helvetica;fontSize=11;fontColor=default;labelBackgroundColor=default;endArrow=classic;" parent="WIyWlLk6GJQsqaUBKTNV-1" source="uH4OkT64cM5H5gFiCBfV-12" target="JQYIA-HylmGEcJKbKAeS-7" edge="1">
          <mxGeometry relative="1" as="geometry" />
        </mxCell>
        <mxCell id="uH4OkT64cM5H5gFiCBfV-12" value="" style="shape=trapezoid;perimeter=trapezoidPerimeter;whiteSpace=wrap;html=1;fixedSize=1;fontFamily=Times New Roman;fillColor=#90c0c2;strokeColor=#0e8088;direction=west;fontSize=13;" parent="WIyWlLk6GJQsqaUBKTNV-1" vertex="1">
          <mxGeometry x="410" y="758" width="220" height="40" as="geometry" />
        </mxCell>
        <mxCell id="uH4OkT64cM5H5gFiCBfV-48" value="End" style="text;html=1;strokeColor=none;fillColor=none;align=center;verticalAlign=middle;whiteSpace=wrap;rounded=0;fontFamily=Times New Roman;fontSize=13;fontColor=#FFFFFF;" parent="WIyWlLk6GJQsqaUBKTNV-1" vertex="1">
          <mxGeometry x="320" y="1169" width="40" height="20" as="geometry" />
        </mxCell>
        <mxCell id="JQYIA-HylmGEcJKbKAeS-16" style="edgeStyle=orthogonalEdgeStyle;rounded=0;orthogonalLoop=1;jettySize=auto;html=1;entryX=0.5;entryY=0;entryDx=0;entryDy=0;strokeColor=#FFFFFF;align=center;verticalAlign=middle;fontFamily=Helvetica;fontSize=11;fontColor=default;labelBackgroundColor=default;endArrow=classic;" parent="WIyWlLk6GJQsqaUBKTNV-1" source="JQYIA-HylmGEcJKbKAeS-0" target="JQYIA-HylmGEcJKbKAeS-1" edge="1">
          <mxGeometry relative="1" as="geometry" />
        </mxCell>
        <mxCell id="JQYIA-HylmGEcJKbKAeS-0" value="Select Relevant Rays" style="rounded=1;whiteSpace=wrap;html=1;fontSize=13;glass=0;strokeWidth=1;shadow=0;fillColor=#DBCEAA;strokeColor=#d6b656;fontFamily=Times New Roman;fontColor=#000000;flipV=0;flipH=1;" parent="WIyWlLk6GJQsqaUBKTNV-1" vertex="1">
          <mxGeometry x="280" y="280" width="120" height="40" as="geometry" />
        </mxCell>
        <mxCell id="JQYIA-HylmGEcJKbKAeS-17" value="" style="edgeStyle=orthogonalEdgeStyle;rounded=0;orthogonalLoop=1;jettySize=auto;html=1;strokeColor=#FFFFFF;align=center;verticalAlign=middle;fontFamily=Helvetica;fontSize=11;fontColor=default;labelBackgroundColor=default;endArrow=classic;" parent="WIyWlLk6GJQsqaUBKTNV-1" source="JQYIA-HylmGEcJKbKAeS-1" target="JQYIA-HylmGEcJKbKAeS-2" edge="1">
          <mxGeometry relative="1" as="geometry" />
        </mxCell>
        <mxCell id="JQYIA-HylmGEcJKbKAeS-1" value="Get Relevant Ray Sections" style="rounded=1;whiteSpace=wrap;html=1;fontSize=13;glass=0;strokeWidth=1;shadow=0;fillColor=#DBCEAA;strokeColor=#d6b656;fontFamily=Times New Roman;fontColor=#000000;flipV=0;flipH=1;" parent="WIyWlLk6GJQsqaUBKTNV-1" vertex="1">
          <mxGeometry x="280" y="360" width="120" height="40" as="geometry" />
        </mxCell>
        <mxCell id="JQYIA-HylmGEcJKbKAeS-27" style="edgeStyle=orthogonalEdgeStyle;rounded=0;orthogonalLoop=1;jettySize=auto;html=1;strokeColor=#FFFFFF;align=center;verticalAlign=middle;fontFamily=Helvetica;fontSize=11;fontColor=default;labelBackgroundColor=default;endArrow=classic;" parent="WIyWlLk6GJQsqaUBKTNV-1" source="JQYIA-HylmGEcJKbKAeS-2" target="JQYIA-HylmGEcJKbKAeS-3" edge="1">
          <mxGeometry relative="1" as="geometry" />
        </mxCell>
        <mxCell id="JQYIA-HylmGEcJKbKAeS-30" style="edgeStyle=orthogonalEdgeStyle;rounded=0;orthogonalLoop=1;jettySize=auto;html=1;entryX=0.5;entryY=0;entryDx=0;entryDy=0;strokeColor=#FFFFFF;align=center;verticalAlign=middle;fontFamily=Helvetica;fontSize=11;fontColor=default;labelBackgroundColor=default;endArrow=classic;" parent="WIyWlLk6GJQsqaUBKTNV-1" source="JQYIA-HylmGEcJKbKAeS-2" target="JQYIA-HylmGEcJKbKAeS-6" edge="1">
          <mxGeometry relative="1" as="geometry" />
        </mxCell>
        <mxCell id="JQYIA-HylmGEcJKbKAeS-2" value="Method" style="rhombus;whiteSpace=wrap;html=1;shadow=0;fontFamily=Times New Roman;fontSize=13;align=center;strokeWidth=1;spacing=6;spacingTop=-4;fillColor=#B6C5D9;strokeColor=#6c8ebf;fontColor=#000000;" parent="WIyWlLk6GJQsqaUBKTNV-1" vertex="1">
          <mxGeometry x="290" y="440" width="100" height="80" as="geometry" />
        </mxCell>
        <mxCell id="JQYIA-HylmGEcJKbKAeS-41" style="edgeStyle=orthogonalEdgeStyle;rounded=0;orthogonalLoop=1;jettySize=auto;html=1;entryX=0;entryY=0.5;entryDx=0;entryDy=0;exitX=0.5;exitY=1;exitDx=0;exitDy=0;strokeColor=#FFFFFF;align=center;verticalAlign=middle;fontFamily=Helvetica;fontSize=11;fontColor=default;labelBackgroundColor=default;endArrow=classic;" parent="WIyWlLk6GJQsqaUBKTNV-1" source="JQYIA-HylmGEcJKbKAeS-3" target="JQYIA-HylmGEcJKbKAeS-31" edge="1">
          <mxGeometry relative="1" as="geometry">
            <Array as="points">
              <mxPoint x="160" y="1018" />
            </Array>
          </mxGeometry>
        </mxCell>
        <mxCell id="JQYIA-HylmGEcJKbKAeS-3" value="Minimize Cost Function" style="rounded=1;whiteSpace=wrap;html=1;fontSize=13;glass=0;strokeWidth=1;shadow=0;fillColor=#DBCEAA;strokeColor=#d6b656;fontFamily=Times New Roman;fontColor=#000000;" parent="WIyWlLk6GJQsqaUBKTNV-1" vertex="1">
          <mxGeometry x="100" y="679" width="120" height="40" as="geometry" />
        </mxCell>
        <mxCell id="JQYIA-HylmGEcJKbKAeS-29" value="" style="edgeStyle=orthogonalEdgeStyle;rounded=0;orthogonalLoop=1;jettySize=auto;html=1;strokeColor=#FFFFFF;" parent="WIyWlLk6GJQsqaUBKTNV-1" source="JQYIA-HylmGEcJKbKAeS-4" target="uH4OkT64cM5H5gFiCBfV-48" edge="1">
          <mxGeometry relative="1" as="geometry" />
        </mxCell>
        <mxCell id="JQYIA-HylmGEcJKbKAeS-4" value="Create Result Dictionary" style="rounded=1;whiteSpace=wrap;html=1;fontSize=13;glass=0;strokeWidth=1;shadow=0;fillColor=#DBCEAA;strokeColor=#d6b656;fontFamily=Times New Roman;fontColor=#000000;" parent="WIyWlLk6GJQsqaUBKTNV-1" vertex="1">
          <mxGeometry x="280" y="1080" width="120" height="40" as="geometry" />
        </mxCell>
        <mxCell id="JQYIA-HylmGEcJKbKAeS-37" style="edgeStyle=orthogonalEdgeStyle;rounded=0;orthogonalLoop=1;jettySize=auto;html=1;entryX=0.5;entryY=1;entryDx=0;entryDy=0;strokeColor=#FFFFFF;align=center;verticalAlign=middle;fontFamily=Helvetica;fontSize=11;fontColor=default;labelBackgroundColor=default;endArrow=classic;" parent="WIyWlLk6GJQsqaUBKTNV-1" source="JQYIA-HylmGEcJKbKAeS-5" target="uH4OkT64cM5H5gFiCBfV-12" edge="1">
          <mxGeometry relative="1" as="geometry" />
        </mxCell>
        <mxCell id="JQYIA-HylmGEcJKbKAeS-5" value="Calculate Cost Function Values" style="rounded=1;whiteSpace=wrap;html=1;fontSize=13;glass=0;strokeWidth=1;shadow=0;fillColor=#DBCEAA;strokeColor=#d6b656;fontFamily=Times New Roman;fontColor=#000000;" parent="WIyWlLk6GJQsqaUBKTNV-1" vertex="1">
          <mxGeometry x="460" y="679" width="120" height="40" as="geometry" />
        </mxCell>
        <mxCell id="JQYIA-HylmGEcJKbKAeS-20" style="edgeStyle=orthogonalEdgeStyle;rounded=0;orthogonalLoop=1;jettySize=auto;html=1;entryX=0.5;entryY=0;entryDx=0;entryDy=0;strokeColor=#FFFFFF;align=center;verticalAlign=middle;fontFamily=Helvetica;fontSize=11;fontColor=default;labelBackgroundColor=default;endArrow=classic;" parent="WIyWlLk6GJQsqaUBKTNV-1" source="JQYIA-HylmGEcJKbKAeS-6" target="uH4OkT64cM5H5gFiCBfV-1" edge="1">
          <mxGeometry relative="1" as="geometry" />
        </mxCell>
        <mxCell id="JQYIA-HylmGEcJKbKAeS-6" value="Create Search Range" style="rounded=1;whiteSpace=wrap;html=1;fontSize=13;glass=0;strokeWidth=1;shadow=0;fillColor=#DBCEAA;strokeColor=#d6b656;fontFamily=Times New Roman;fontColor=#000000;" parent="WIyWlLk6GJQsqaUBKTNV-1" vertex="1">
          <mxGeometry x="460" y="520" width="120" height="40" as="geometry" />
        </mxCell>
        <mxCell id="JQYIA-HylmGEcJKbKAeS-26" value="" style="edgeStyle=orthogonalEdgeStyle;rounded=0;orthogonalLoop=1;jettySize=auto;html=1;strokeColor=#FFFFFF;align=center;verticalAlign=middle;fontFamily=Helvetica;fontSize=11;fontColor=default;labelBackgroundColor=default;endArrow=classic;" parent="WIyWlLk6GJQsqaUBKTNV-1" source="JQYIA-HylmGEcJKbKAeS-7" target="JQYIA-HylmGEcJKbKAeS-9" edge="1">
          <mxGeometry relative="1" as="geometry" />
        </mxCell>
        <mxCell id="JQYIA-HylmGEcJKbKAeS-7" value="Select Minimum as Starting Point" style="rounded=1;whiteSpace=wrap;html=1;fontSize=13;glass=0;strokeWidth=1;shadow=0;fillColor=#DBCEAA;strokeColor=#d6b656;fontFamily=Times New Roman;fontColor=#000000;flipV=1;" parent="WIyWlLk6GJQsqaUBKTNV-1" vertex="1">
          <mxGeometry x="460" y="840" width="120" height="40" as="geometry" />
        </mxCell>
        <mxCell id="JQYIA-HylmGEcJKbKAeS-40" style="edgeStyle=orthogonalEdgeStyle;rounded=0;orthogonalLoop=1;jettySize=auto;html=1;entryX=1;entryY=0.5;entryDx=0;entryDy=0;strokeColor=#FFFFFF;align=center;verticalAlign=middle;fontFamily=Helvetica;fontSize=11;fontColor=default;labelBackgroundColor=default;endArrow=classic;" parent="WIyWlLk6GJQsqaUBKTNV-1" source="JQYIA-HylmGEcJKbKAeS-9" target="JQYIA-HylmGEcJKbKAeS-31" edge="1">
          <mxGeometry relative="1" as="geometry">
            <Array as="points">
              <mxPoint x="520" y="1018" />
            </Array>
          </mxGeometry>
        </mxCell>
        <mxCell id="JQYIA-HylmGEcJKbKAeS-9" value="Minimize Function Around Start Point" style="rounded=1;whiteSpace=wrap;html=1;fontSize=13;glass=0;strokeWidth=1;shadow=0;fillColor=#DBCEAA;strokeColor=#d6b656;fontFamily=Times New Roman;fontColor=#000000;flipV=1;" parent="WIyWlLk6GJQsqaUBKTNV-1" vertex="1">
          <mxGeometry x="460" y="919" width="120" height="40" as="geometry" />
        </mxCell>
        <mxCell id="JQYIA-HylmGEcJKbKAeS-32" value="" style="edgeStyle=orthogonalEdgeStyle;rounded=0;orthogonalLoop=1;jettySize=auto;html=1;strokeColor=#FFFFFF;align=center;verticalAlign=middle;fontFamily=Helvetica;fontSize=11;fontColor=default;labelBackgroundColor=default;endArrow=classic;" parent="WIyWlLk6GJQsqaUBKTNV-1" source="JQYIA-HylmGEcJKbKAeS-31" target="JQYIA-HylmGEcJKbKAeS-4" edge="1">
          <mxGeometry relative="1" as="geometry" />
        </mxCell>
        <mxCell id="JQYIA-HylmGEcJKbKAeS-31" value="" style="ellipse;whiteSpace=wrap;html=1;aspect=fixed;fontFamily=Times New Roman;fontSize=13;fontColor=#000000;" parent="WIyWlLk6GJQsqaUBKTNV-1" vertex="1">
          <mxGeometry x="332.5" y="1010" width="15" height="15" as="geometry" />
        </mxCell>
        <mxCell id="JQYIA-HylmGEcJKbKAeS-35" value="Position Variance" style="text;html=1;strokeColor=none;fillColor=none;align=center;verticalAlign=middle;whiteSpace=wrap;rounded=0;fontFamily=Times New Roman;fontSize=13;fontColor=#FFFFFF;" parent="WIyWlLk6GJQsqaUBKTNV-1" vertex="1">
          <mxGeometry x="180" y="460" width="100" height="20" as="geometry" />
        </mxCell>
        <mxCell id="JQYIA-HylmGEcJKbKAeS-36" value="All Other Methods" style="text;html=1;strokeColor=none;fillColor=none;align=center;verticalAlign=middle;whiteSpace=wrap;rounded=0;fontFamily=Times New Roman;fontSize=13;fontColor=#FFFFFF;labelBackgroundColor=none;" parent="WIyWlLk6GJQsqaUBKTNV-1" vertex="1">
          <mxGeometry x="380" y="460" width="150" height="20" as="geometry" />
        </mxCell>
        <mxCell id="JQYIA-HylmGEcJKbKAeS-38" value="&amp;nbsp;" style="text;whiteSpace=wrap;html=1;" parent="WIyWlLk6GJQsqaUBKTNV-1" vertex="1">
          <mxGeometry x="430" y="330" width="40" height="40" as="geometry" />
        </mxCell>
      </root>
    </mxGraphModel>
  </diagram>
</mxfile>
